<?xml version="1.0" encoding="UTF-8"?>
<svg xmlns="http://www.w3.org/2000/svg" width="1024" height="1024" viewBox="0 0 1024 1024" role="img" aria-labelledby="title desc">
  <title id="title">中心对称紫色标志（透明底）</title>
  <desc id="desc">透明背景上的中心对称紫色 S 形标志。</desc>

  <!-- Editable physical construction: two equal protostars, disks, tidal tails, bridge and exchange stream. -->
  <g id="stellar-encounter" fill="rgb(99, 6, 95)" stroke="none">
    <circle id="star-a" cx="408" cy="274" r="84"/>
    <circle id="star-b" cx="616" cy="750" r="84"/>

    <path id="disk-a"
      d="M817 250.55
         C764.22 238.92 705.85 238.33 650.88 235.96
         C595.92 233.59 539.04 229.73 491.32 203.89
         C443.59 178.05 384.85 168.22 338.04 197.90
         C291.23 227.58 279.06 301.35 319.67 340.57
         C335.95 359.45 357.64 372.10 377.71 385.63
         L483.82 438.46
         C475.48 421.11 466.18 399.32 466.88 368.53
         C468.22 309.47 504.79 286.21 545.31 270.99
         C585.83 255.77 632.54 251.70 677.81 248.05
         C723.07 244.41 771.78 245.96 817 250.55 Z"/>
    <path id="disk-b" transform="rotate(180 512 512)"
      d="M817 250.55
         C764.22 238.92 705.85 238.33 650.88 235.96
         C595.92 233.59 539.04 229.73 491.32 203.89
         C443.59 178.05 384.85 168.22 338.04 197.90
         C291.23 227.58 279.06 301.35 319.67 340.57
         C335.95 359.45 357.64 372.10 377.71 385.63
         L483.82 438.46
         C475.48 421.11 466.18 399.32 466.88 368.53
         C468.22 309.47 504.79 286.21 545.31 270.99
         C585.83 255.77 632.54 251.70 677.81 248.05
         C723.07 244.41 771.78 245.96 817 250.55 Z"/>

    <path id="tail-a"
      d="M491.32 203.89
         C539.04 229.73 595.92 233.59 650.88 235.96
         C705.85 238.33 764.22 238.92 817 250.55
         C771.78 245.96 723.07 244.41 677.81 248.05
         C632.54 251.70 585.83 255.77 545.31 270.99
         C526 249 509 224 491.32 203.89 Z"/>
    <path id="tail-b" transform="rotate(180 512 512)"
      d="M491.32 203.89
         C539.04 229.73 595.92 233.59 650.88 235.96
         C705.85 238.33 764.22 238.92 817 250.55
         C771.78 245.96 723.07 244.41 677.81 248.05
         C632.54 251.70 585.83 255.77 545.31 270.99
         C526 249 509 224 491.32 203.89 Z"/>

    <path id="gas-bridge"
      d="M377.86 385.78
         C446.05 437.31 503.14 508.43 540.18 585.54
         C548.52 602.89 557.82 624.68 557.12 655.47
         L704.33 683.43
         L646.14 638.22
         C577.95 586.69 520.86 515.57 483.82 438.46
         C475.48 421.11 466.18 399.32 466.88 368.53
         L319.67 340.57
         L377.86 385.78 Z"/>

    <ellipse id="exchange-stream"
      cx="512" cy="512" rx="6" ry="48"
      transform="rotate(-40 512 512)"/>
  </g>
</svg>
